<svg xmlns="http://www.w3.org/2000/svg" xmlns:xlink="http://www.w3.org/1999/xlink" width="96px" height="96px" viewBox="0 0 96 96" version="1.1">
<g id="surface1">
<path style=" stroke:none;fill-rule:nonzero;fill:#000000;fill-opacity:1;" d="M 4 84 L 48 8 L 92 84 Z M 17.800781 76 L 78.199219 76 L 48 24 Z M 48 72 C 49.132812 72 50.082031 71.617188 50.851562 70.851562 C 51.617188 70.082031 52 69.132812 52 68 C 52 66.867188 51.617188 65.917969 50.851562 65.148438 C 50.082031 64.382812 49.132812 64 48 64 C 46.867188 64 45.917969 64.382812 45.148438 65.148438 C 44.382812 65.917969 44 66.867188 44 68 C 44 69.132812 44.382812 70.082031 45.148438 70.851562 C 45.917969 71.617188 46.867188 72 48 72 Z M 44 60 L 52 60 L 52 40 L 44 40 Z M 48 50 Z M 48 50 "/>
</g>
</svg>