<svg xmlns="http://www.w3.org/2000/svg" xmlns:xlink="http://www.w3.org/1999/xlink" width="96px" height="96px" viewBox="0 0 96 96" version="1.1">
<g id="surface1">
<path style=" stroke:none;fill-rule:nonzero;fill:#000000;fill-opacity:1;" d="M 20 88 C 17.800781 88 15.917969 87.214844 14.351562 85.648438 C 12.785156 84.082031 12 82.199219 12 80 L 12 24 C 12 21.800781 12.785156 19.917969 14.351562 18.351562 C 15.917969 16.785156 17.800781 16 20 16 L 24 16 L 24 8 L 32 8 L 32 16 L 64 16 L 64 8 L 72 8 L 72 16 L 76 16 C 78.199219 16 80.082031 16.785156 81.648438 18.351562 C 83.214844 19.917969 84 21.800781 84 24 L 84 80 C 84 82.199219 83.214844 84.082031 81.648438 85.648438 C 80.082031 87.214844 78.199219 88 76 88 Z M 20 80 L 76 80 L 76 40 L 20 40 Z M 20 32 L 76 32 L 76 24 L 20 24 Z M 20 32 L 20 24 Z M 48 56 C 46.867188 56 45.917969 55.617188 45.148438 54.851562 C 44.382812 54.082031 44 53.132812 44 52 C 44 50.867188 44.382812 49.917969 45.148438 49.148438 C 45.917969 48.382812 46.867188 48 48 48 C 49.132812 48 50.082031 48.382812 50.851562 49.148438 C 51.617188 49.917969 52 50.867188 52 52 C 52 53.132812 51.617188 54.082031 50.851562 54.851562 C 50.082031 55.617188 49.132812 56 48 56 Z M 32 56 C 30.867188 56 29.917969 55.617188 29.148438 54.851562 C 28.382812 54.082031 28 53.132812 28 52 C 28 50.867188 28.382812 49.917969 29.148438 49.148438 C 29.917969 48.382812 30.867188 48 32 48 C 33.132812 48 34.082031 48.382812 34.851562 49.148438 C 35.617188 49.917969 36 50.867188 36 52 C 36 53.132812 35.617188 54.082031 34.851562 54.851562 C 34.082031 55.617188 33.132812 56 32 56 Z M 64 56 C 62.867188 56 61.917969 55.617188 61.148438 54.851562 C 60.382812 54.082031 60 53.132812 60 52 C 60 50.867188 60.382812 49.917969 61.148438 49.148438 C 61.917969 48.382812 62.867188 48 64 48 C 65.132812 48 66.082031 48.382812 66.851562 49.148438 C 67.617188 49.917969 68 50.867188 68 52 C 68 53.132812 67.617188 54.082031 66.851562 54.851562 C 66.082031 55.617188 65.132812 56 64 56 Z M 48 72 C 46.867188 72 45.917969 71.617188 45.148438 70.851562 C 44.382812 70.082031 44 69.132812 44 68 C 44 66.867188 44.382812 65.917969 45.148438 65.148438 C 45.917969 64.382812 46.867188 64 48 64 C 49.132812 64 50.082031 64.382812 50.851562 65.148438 C 51.617188 65.917969 52 66.867188 52 68 C 52 69.132812 51.617188 70.082031 50.851562 70.851562 C 50.082031 71.617188 49.132812 72 48 72 Z M 32 72 C 30.867188 72 29.917969 71.617188 29.148438 70.851562 C 28.382812 70.082031 28 69.132812 28 68 C 28 66.867188 28.382812 65.917969 29.148438 65.148438 C 29.917969 64.382812 30.867188 64 32 64 C 33.132812 64 34.082031 64.382812 34.851562 65.148438 C 35.617188 65.917969 36 66.867188 36 68 C 36 69.132812 35.617188 70.082031 34.851562 70.851562 C 34.082031 71.617188 33.132812 72 32 72 Z M 64 72 C 62.867188 72 61.917969 71.617188 61.148438 70.851562 C 60.382812 70.082031 60 69.132812 60 68 C 60 66.867188 60.382812 65.917969 61.148438 65.148438 C 61.917969 64.382812 62.867188 64 64 64 C 65.132812 64 66.082031 64.382812 66.851562 65.148438 C 67.617188 65.917969 68 66.867188 68 68 C 68 69.132812 67.617188 70.082031 66.851562 70.851562 C 66.082031 71.617188 65.132812 72 64 72 Z M 64 72 "/>
</g>
</svg>