<svg version="1.1" id="Layer_1" xmlns="http://www.w3.org/2000/svg" xmlns:xlink="http://www.w3.org/1999/xlink" x="0px" y="0px"
	 width="100%" viewBox="0 0 512 512" enable-background="new 0 0 512 512" xml:space="preserve">
<path fill="#EB4034" opacity="1.000000" stroke="none" 
	d="
M226.000000,1.000003 
	C246.354233,1.000000 266.708466,1.000000 287.328186,1.391943 
	C288.435486,2.185720 289.238037,2.778011 290.124939,2.960736 
	C302.874023,5.587387 315.827545,7.454521 328.352600,10.887924 
	C355.787140,18.408369 381.040192,30.832956 404.385254,47.094105 
	C423.036560,60.085781 439.664368,75.387543 454.132233,92.833855 
	C468.009979,109.568527 479.782990,127.773865 488.954834,147.603348 
	C500.184784,171.882523 508.016449,197.101456 511.080933,223.740341 
	C511.174835,224.556351 512.336243,225.249557 513.000000,226.000000 
	C513.000000,246.354233 513.000000,266.708466 512.608032,287.328217 
	C511.814301,288.435547 511.221985,289.238098 511.039246,290.125031 
	C508.412598,302.874115 506.545380,315.827637 503.112030,328.352783 
	C495.591736,355.787354 483.166870,381.040314 466.905792,404.385406 
	C453.914185,423.036682 438.612396,439.664459 421.166046,454.132263 
	C404.431366,468.009979 386.226074,479.783081 366.396576,488.954865 
	C342.117432,500.184784 316.898468,508.016418 290.259644,511.080902 
	C289.443665,511.174805 288.750458,512.336304 288.000000,513.000000 
	C267.645782,513.000000 247.291550,513.000000 226.671783,512.608032 
	C225.564423,511.814301 224.761841,511.221985 223.874878,511.039215 
	C211.125778,508.412537 198.172302,506.545258 185.647156,503.111938 
	C158.212540,495.591705 132.959686,483.166779 109.614609,466.905731 
	C90.963280,453.914124 74.335518,438.612366 59.867680,421.166046 
	C45.989975,404.431366 34.216942,386.226074 25.045134,366.396606 
	C13.815191,342.117432 5.983528,316.898529 2.919047,290.259674 
	C2.825173,289.443665 1.663729,288.750458 1.000001,288.000000 
	C1.000000,267.645782 1.000000,247.291550 1.391955,226.671783 
	C2.185736,225.564484 2.778016,224.761948 2.960744,223.875031 
	C5.587391,211.125961 7.454507,198.172455 10.887920,185.647385 
	C18.408377,158.212860 30.832966,132.959793 47.094105,109.614700 
	C60.085762,90.963402 75.387543,74.335648 92.833839,59.867783 
	C109.568535,45.990032 127.773857,34.217003 147.603363,25.045162 
	C171.882507,13.815201 197.101440,5.983534 223.740311,2.919051 
	C224.556335,2.825176 225.249542,1.663733 226.000000,1.000003 
M383.173218,160.365692 
	C375.142456,134.422867 357.539246,116.811729 333.984558,104.714798 
	C307.005493,90.859245 277.852875,87.626549 248.065735,88.547417 
	C212.382706,89.650566 180.298782,101.459152 151.618210,122.454399 
	C141.134048,130.129181 132.938034,140.025452 127.965096,152.181732 
	C125.636253,157.874542 127.839127,161.348892 133.919144,160.753342 
	C139.911575,160.166382 145.993973,158.545044 151.584503,156.267212 
	C159.884766,152.885269 167.678604,148.283401 175.877121,144.624573 
	C207.519012,130.503448 240.349243,125.868309 274.297333,134.029617 
	C299.650116,140.124542 314.944702,156.598679 317.714264,180.270767 
	C319.389557,194.590027 318.306549,208.918030 314.588104,222.912582 
	C308.097107,247.341721 292.890442,262.832153 267.765228,267.915283 
	C258.635071,269.762421 249.462555,271.406281 240.355530,273.358368 
	C236.632996,274.156250 232.623032,275.105560 231.636246,279.691895 
	C230.645203,284.298096 231.875076,288.775879 235.597824,291.346497 
	C240.017960,294.398590 244.987289,297.561279 250.123093,298.528564 
	C293.758209,306.746796 331.863098,297.423431 360.954895,261.730713 
	C385.184937,232.002930 393.173553,198.513000 383.173218,160.365692 
M199.865677,408.003021 
	C200.308838,405.729156 201.018448,403.470886 201.152908,401.178925 
	C202.206635,383.217651 203.356598,365.258209 204.076019,347.282135 
	C205.003494,324.107330 207.793732,301.264008 212.457092,278.485291 
	C218.590881,248.524109 223.634933,218.317780 228.240860,188.078751 
	C229.697235,178.517227 228.667786,168.482666 227.967880,158.722549 
	C227.549088,152.882233 224.871033,151.257385 219.376419,153.314178 
	C214.825119,155.017822 210.358505,157.693558 206.700836,160.903214 
	C194.163895,171.904572 186.222626,186.256653 179.711929,201.262726 
	C156.574127,254.591705 141.197189,310.072113 136.543991,368.116272 
	C135.290558,383.751953 137.086166,399.682434 138.165543,415.430756 
	C138.616119,422.004669 143.237686,426.086761 149.613785,425.674866 
	C160.685654,424.959564 171.807449,423.786224 182.679764,421.644684 
	C189.940674,420.214478 196.157486,415.946594 199.865677,408.003021 
z"/>
<path fill="#000000" opacity="1.000000" stroke="none" 
	d="
M225.531342,1.000003 
	C225.249542,1.663733 224.556335,2.825176 223.740311,2.919051 
	C197.101440,5.983534 171.882507,13.815201 147.603363,25.045162 
	C127.773857,34.217003 109.568535,45.990032 92.833839,59.867783 
	C75.387543,74.335648 60.085762,90.963402 47.094105,109.614700 
	C30.832966,132.959793 18.408377,158.212860 10.887920,185.647385 
	C7.454507,198.172455 5.587391,211.125961 2.960744,223.875031 
	C2.778016,224.761948 2.185736,225.564484 1.391955,226.203125 
	C1.000000,151.072952 1.000000,76.145912 1.000000,1.000000 
	C75.687416,1.000000 150.375046,1.000000 225.531342,1.000003 
z"/>
<path fill="#000000" opacity="1.000000" stroke="none" 
	d="
M513.000000,225.531342 
	C512.336243,225.249557 511.174835,224.556351 511.080933,223.740341 
	C508.016449,197.101456 500.184784,171.882523 488.954834,147.603348 
	C479.782990,127.773865 468.009979,109.568527 454.132233,92.833855 
	C439.664368,75.387543 423.036560,60.085781 404.385254,47.094105 
	C381.040192,30.832956 355.787140,18.408369 328.352600,10.887924 
	C315.827545,7.454521 302.874023,5.587387 290.124939,2.960736 
	C289.238037,2.778011 288.435486,2.185720 287.796875,1.391943 
	C362.927032,1.000000 437.854095,1.000000 513.000000,1.000000 
	C513.000000,75.687416 513.000000,150.375046 513.000000,225.531342 
z"/>
<path fill="#000000" opacity="1.000000" stroke="none" 
	d="
M1.000001,288.468658 
	C1.663729,288.750458 2.825173,289.443665 2.919047,290.259674 
	C5.983528,316.898529 13.815191,342.117432 25.045134,366.396606 
	C34.216942,386.226074 45.989975,404.431366 59.867680,421.166046 
	C74.335518,438.612366 90.963280,453.914124 109.614609,466.905731 
	C132.959686,483.166779 158.212540,495.591705 185.647156,503.111938 
	C198.172302,506.545258 211.125778,508.412537 223.874878,511.039215 
	C224.761841,511.221985 225.564423,511.814301 226.203125,512.608032 
	C151.072968,513.000000 76.145927,513.000000 1.000000,513.000000 
	C1.000000,438.312592 1.000000,363.624939 1.000001,288.468658 
z"/>
<path fill="#000000" opacity="1.000000" stroke="none" 
	d="
M288.468658,513.000000 
	C288.750458,512.336304 289.443665,511.174805 290.259644,511.080902 
	C316.898468,508.016418 342.117432,500.184784 366.396576,488.954865 
	C386.226074,479.783081 404.431366,468.009979 421.166046,454.132263 
	C438.612396,439.664459 453.914185,423.036682 466.905792,404.385406 
	C483.166870,381.040314 495.591736,355.787354 503.112030,328.352783 
	C506.545380,315.827637 508.412598,302.874115 511.039246,290.125031 
	C511.221985,289.238098 511.814301,288.435547 512.608032,287.796875 
	C513.000000,362.927032 513.000000,437.854095 513.000000,513.000000 
	C438.312592,513.000000 363.624939,513.000000 288.468658,513.000000 
z"/>
<path fill="#FFFEFE" opacity="1.000000" stroke="none" 
	d="
M383.302460,160.747147 
	C393.173553,198.513000 385.184937,232.002930 360.954895,261.730713 
	C331.863098,297.423431 293.758209,306.746796 250.123093,298.528564 
	C244.987289,297.561279 240.017960,294.398590 235.597824,291.346497 
	C231.875076,288.775879 230.645203,284.298096 231.636246,279.691895 
	C232.623032,275.105560 236.632996,274.156250 240.355530,273.358368 
	C249.462555,271.406281 258.635071,269.762421 267.765228,267.915283 
	C292.890442,262.832153 308.097107,247.341721 314.588104,222.912582 
	C318.306549,208.918030 319.389557,194.590027 317.714264,180.270767 
	C314.944702,156.598679 299.650116,140.124542 274.297333,134.029617 
	C240.349243,125.868309 207.519012,130.503448 175.877121,144.624573 
	C167.678604,148.283401 159.884766,152.885269 151.584503,156.267212 
	C145.993973,158.545044 139.911575,160.166382 133.919144,160.753342 
	C127.839127,161.348892 125.636253,157.874542 127.965096,152.181732 
	C132.938034,140.025452 141.134048,130.129181 151.618210,122.454399 
	C180.298782,101.459152 212.382706,89.650566 248.065735,88.547417 
	C277.852875,87.626549 307.005493,90.859245 333.984558,104.714798 
	C357.539246,116.811729 375.142456,134.422867 383.302460,160.747147 
z"/>
<path fill="#FFFEFE" opacity="1.000000" stroke="none" 
	d="
M199.693268,408.354584 
	C196.157486,415.946594 189.940674,420.214478 182.679764,421.644684 
	C171.807449,423.786224 160.685654,424.959564 149.613785,425.674866 
	C143.237686,426.086761 138.616119,422.004669 138.165543,415.430756 
	C137.086166,399.682434 135.290558,383.751953 136.543991,368.116272 
	C141.197189,310.072113 156.574127,254.591705 179.711929,201.262726 
	C186.222626,186.256653 194.163895,171.904572 206.700836,160.903214 
	C210.358505,157.693558 214.825119,155.017822 219.376419,153.314178 
	C224.871033,151.257385 227.549088,152.882233 227.967880,158.722549 
	C228.667786,168.482666 229.697235,178.517227 228.240860,188.078751 
	C223.634933,218.317780 218.590881,248.524109 212.457092,278.485291 
	C207.793732,301.264008 205.003494,324.107330 204.076019,347.282135 
	C203.356598,365.258209 202.206635,383.217651 201.152908,401.178925 
	C201.018448,403.470886 200.308838,405.729156 199.693268,408.354584 
z"/>
</svg>