<?xml version="1.0" encoding="UTF-8"?>
<!DOCTYPE svg PUBLIC "-//W3C//DTD SVG 1.1//EN" "http://www.w3.org/Graphics/SVG/1.1/DTD/svg11.dtd">
<svg xmlns="http://www.w3.org/2000/svg" version="1.1" width="512px" height="512px" style="shape-rendering:geometricPrecision; text-rendering:geometricPrecision; image-rendering:optimizeQuality; fill-rule:evenodd; clip-rule:evenodd" xmlns:xlink="http://www.w3.org/1999/xlink">
<g><path style="opacity:0.997" fill="#eb4034" d="M 233.5,-0.5 C 248.167,-0.5 262.833,-0.5 277.5,-0.5C 369.27,10.611 437.77,56.2777 483,136.5C 498.509,167.183 508.009,199.516 511.5,233.5C 511.5,248.167 511.5,262.833 511.5,277.5C 500.389,369.27 454.722,437.77 374.5,483C 343.817,498.509 311.484,508.009 277.5,511.5C 262.833,511.5 248.167,511.5 233.5,511.5C 141.73,500.389 73.2303,454.722 28,374.5C 12.4905,343.817 2.99052,311.484 -0.5,277.5C -0.5,262.833 -0.5,248.167 -0.5,233.5C 10.611,141.73 56.2777,73.2303 136.5,28C 167.183,12.4905 199.516,2.99052 233.5,-0.5 Z"/></g>
<g><path style="opacity:1" fill="#fefdfd" d="M 239.5,86.5 C 260.721,85.7775 281.721,87.6108 302.5,92C 330.186,98.2424 352.686,112.409 370,134.5C 384.06,155.792 389.06,179.126 385,204.5C 377.092,246.065 353.925,275.565 315.5,293C 296.292,299.093 276.626,301.093 256.5,299C 248.464,298.161 241.131,295.495 234.5,291C 229.834,286.538 228.667,281.371 231,275.5C 231.903,274.299 233.069,273.465 234.5,273C 245.749,270.236 257.082,267.903 268.5,266C 293.633,259.2 308.8,243.033 314,217.5C 326.654,164.578 306.154,135.078 252.5,129C 228.746,127.285 205.746,130.619 183.5,139C 169.713,145.06 156.047,151.393 142.5,158C 137.905,159.393 133.239,159.726 128.5,159C 125.049,156.056 124.549,152.556 127,148.5C 134.396,133.77 145.229,122.27 159.5,114C 184.264,98.9132 210.931,89.7465 239.5,86.5 Z"/></g>
<g><path style="opacity:1" fill="#fefdfd" d="M 216.5,151.5 C 222.276,149.939 225.776,151.939 227,157.5C 227.911,181.728 225.911,205.728 221,229.5C 215.457,255.795 210.124,282.128 205,308.5C 203.266,340.517 201.266,372.517 199,404.5C 196.86,411.974 192.026,416.807 184.5,419C 171.486,423.127 158.153,424.793 144.5,424C 139.321,421.478 136.487,417.311 136,411.5C 132.941,380.59 134.608,349.923 141,319.5C 149.828,272.831 164.495,228.164 185,185.5C 192.282,171.056 202.782,159.723 216.5,151.5 Z"/></g>
</svg>
