<?xml version="1.0" encoding="UTF-8"?>
<svg xmlns="http://www.w3.org/2000/svg" xmlns:xlink="http://www.w3.org/1999/xlink" width="96px" height="96px" viewBox="0 0 96 96" version="1.1">
<g id="surface1">
<path style=" stroke:none;fill-rule:nonzero;fill:rgb(90.980392%,91.764706%,92.941176%);fill-opacity:1;" d="M 48 48 C 43.601562 48 39.832031 46.433594 36.699219 43.300781 C 33.566406 40.167969 32 36.398438 32 32 C 32 27.601562 33.566406 23.832031 36.699219 20.699219 C 39.832031 17.566406 43.601562 16 48 16 C 52.398438 16 56.167969 17.566406 59.300781 20.699219 C 62.433594 23.832031 64 27.601562 64 32 C 64 36.398438 62.433594 40.167969 59.300781 43.300781 C 56.167969 46.433594 52.398438 48 48 48 Z M 16 80 L 16 68.800781 C 16 66.535156 16.582031 64.449219 17.75 62.550781 C 18.917969 60.648438 20.464844 59.199219 22.398438 58.199219 C 26.535156 56.132812 30.734375 54.582031 35 53.550781 C 39.265625 52.515625 43.601562 52 48 52 C 52.398438 52 56.734375 52.515625 61 53.550781 C 65.265625 54.582031 69.464844 56.132812 73.601562 58.199219 C 75.535156 59.199219 77.082031 60.648438 78.25 62.550781 C 79.417969 64.449219 80 66.535156 80 68.800781 L 80 80 Z M 24 72 L 72 72 L 72 68.800781 C 72 68.066406 71.816406 67.398438 71.449219 66.800781 C 71.082031 66.199219 70.601562 65.734375 70 65.398438 C 66.398438 63.601562 62.765625 62.25 59.101562 61.351562 C 55.433594 60.449219 51.734375 60 48 60 C 44.265625 60 40.566406 60.449219 36.898438 61.351562 C 33.234375 62.25 29.601562 63.601562 26 65.398438 C 25.398438 65.734375 24.917969 66.199219 24.550781 66.800781 C 24.183594 67.398438 24 68.066406 24 68.800781 Z M 48 40 C 50.199219 40 52.082031 39.214844 53.648438 37.648438 C 55.214844 36.082031 56 34.199219 56 32 C 56 29.800781 55.214844 27.917969 53.648438 26.351562 C 52.082031 24.785156 50.199219 24 48 24 C 45.800781 24 43.917969 24.785156 42.351562 26.351562 C 40.785156 27.917969 40 29.800781 40 32 C 40 34.199219 40.785156 36.082031 42.351562 37.648438 C 43.917969 39.214844 45.800781 40 48 40 Z M 48 32 Z M 48 72 Z M 48 72 "/>
</g>
</svg>
