<?xml version="1.0" encoding="UTF-8"?>
<svg xmlns="http://www.w3.org/2000/svg" xmlns:xlink="http://www.w3.org/1999/xlink" width="96px" height="96px" viewBox="0 0 96 96" version="1.1">
<g id="surface1">
<path style=" stroke:none;fill-rule:nonzero;fill:rgb(90.980392%,91.764706%,92.941176%);fill-opacity:1;" d="M 20 84 C 17.800781 84 15.917969 83.214844 14.351562 81.648438 C 12.785156 80.082031 12 78.199219 12 76 L 12 20 C 12 17.800781 12.785156 15.917969 14.351562 14.351562 C 15.917969 12.785156 17.800781 12 20 12 L 55.699219 12 L 47.699219 20 L 20 20 L 20 76 L 76 76 L 76 48.199219 L 84 40.199219 L 84 76 C 84 78.199219 83.214844 80.082031 81.648438 81.648438 C 80.082031 83.214844 78.199219 84 76 84 Z M 48 48 Z M 36 60 L 36 43 L 72.699219 6.300781 C 73.5 5.5 74.398438 4.898438 75.398438 4.5 C 76.398438 4.101562 77.398438 3.898438 78.398438 3.898438 C 79.464844 3.898438 80.484375 4.101562 81.449219 4.5 C 82.417969 4.898438 83.300781 5.5 84.101562 6.300781 L 89.699219 12 C 90.433594 12.800781 91 13.683594 91.398438 14.648438 C 91.800781 15.617188 92 16.601562 92 17.601562 C 92 18.601562 91.816406 19.582031 91.449219 20.550781 C 91.082031 21.515625 90.5 22.398438 89.699219 23.199219 L 53 60 Z M 84.101562 17.601562 L 78.5 12 Z M 44 52 L 49.601562 52 L 72.800781 28.800781 L 70 26 L 67.101562 23.199219 L 44 46.300781 Z M 70 26 L 67.101562 23.199219 L 70 26 L 72.800781 28.800781 Z M 70 26 "/>
</g>
</svg>
